<svg width="25" height="25" viewBox="0 0 25 25" fill="none" xmlns="http://www.w3.org/2000/svg">
<path d="M12.5 3.12498C12.5 2.84871 12.3902 2.58376 12.1949 2.38841C11.9995 2.19306 11.7346 2.08331 11.4583 2.08331C11.1821 2.08331 10.9171 2.19306 10.7218 2.38841C10.5264 2.58376 10.4167 2.84871 10.4167 3.12498V10.4166H3.12499C2.84873 10.4166 2.58378 10.5264 2.38843 10.7217C2.19307 10.9171 2.08333 11.182 2.08333 11.4583C2.08333 11.7346 2.19307 11.9995 2.38843 12.1949C2.58378 12.3902 2.84873 12.5 3.12499 12.5H10.4167V19.7916C10.4167 20.0679 10.5264 20.3329 10.7218 20.5282C10.9171 20.7236 11.1821 20.8333 11.4583 20.8333C11.7346 20.8333 11.9995 20.7236 12.1949 20.5282C12.3902 20.3329 12.5 20.0679 12.5 19.7916V12.5H19.7917C20.0679 12.5 20.3329 12.3902 20.5282 12.1949C20.7236 11.9995 20.8333 11.7346 20.8333 11.4583C20.8333 11.182 20.7236 10.9171 20.5282 10.7217C20.3329 10.5264 20.0679 10.4166 19.7917 10.4166H12.5V3.12498Z" fill="white"/>
</svg>
